<?xml version="1.0" standalone="no"?>
<!DOCTYPE svg PUBLIC "-//W3C//DTD SVG 20010904//EN"
 "http://www.w3.org/TR/2001/REC-SVG-20010904/DTD/svg10.dtd">
<svg version="1.0" xmlns="http://www.w3.org/2000/svg"
 width="571.000000pt" height="559.000000pt" viewBox="0 0 571.000000 559.000000"
 preserveAspectRatio="xMidYMid meet">

<g transform="translate(0.000000,559.000000) scale(0.100000,-0.100000)"
fill="#000000" stroke="none">
<path d="M2505 5393 c-103 -13 -380 -77 -469 -107 -106 -37 -209 -78 -288
-115 -48 -23 -89 -41 -92 -41 -11 0 -259 -152 -329 -202 -300 -212 -595 -539
-762 -843 -21 -38 -42 -77 -46 -85 -130 -239 -223 -521 -270 -810 -26 -160
-36 -502 -20 -662 65 -627 347 -1212 790 -1636 404 -389 900 -630 1471 -719
143 -22 547 -25 685 -5 419 60 780 193 1110 410 615 403 1023 1017 1159 1747
41 221 46 619 11 845 -70 450 -252 872 -535 1240 -78 100 -254 284 -349 363
-47 40 -88 74 -91 77 -3 4 -43 34 -90 67 -362 261 -778 424 -1220 479 -148 18
-517 17 -665 -3z m-45 -627 c189 -53 389 -172 514 -307 54 -57 150 -187 158
-211 3 -7 47 15 101 49 191 120 338 166 532 167 144 1 221 -16 340 -76 163
-82 306 -222 383 -374 28 -54 69 -187 78 -249 l7 -50 -45 50 c-98 107 -210
146 -289 98 -19 -11 -72 -41 -119 -65 -129 -69 -1228 -661 -1435 -773 -33 -18
-118 -64 -190 -102 -71 -39 -420 -226 -775 -418 -355 -191 -687 -370 -738
-398 -85 -45 -98 -49 -146 -45 -69 6 -103 31 -164 122 -125 187 -168 404 -123
623 35 168 110 301 238 424 88 84 162 132 276 179 58 25 76 37 73 49 -30 102
-36 320 -11 447 22 117 48 192 116 333 56 117 65 129 157 218 126 123 206 183
317 237 171 84 279 106 490 101 135 -3 175 -7 255 -29z m2390 -1406 c166 -83
254 -175 337 -350 142 -298 100 -652 -106 -897 -170 -203 -384 -294 -693 -296
l-148 -2 0 -57 c0 -229 -88 -468 -234 -633 -186 -211 -475 -321 -767 -293
-108 10 -177 32 -293 91 -173 88 -291 198 -408 379 l-38 59 -56 -60 c-167
-181 -391 -257 -621 -211 -130 26 -307 140 -392 252 -51 68 -101 174 -101 215
0 52 29 110 65 133 18 11 194 81 391 156 605 229 1004 380 1364 516 190 72
422 159 515 195 94 35 276 104 405 153 568 215 634 241 651 256 60 55 67 266
13 432 -5 18 22 9 116 -38z m-1050 -74 c0 -8 -5 -18 -11 -21 -5 -4 -14 -18
-20 -31 -14 -39 11 -83 80 -143 34 -30 68 -66 76 -82 30 -57 9 -139 -36 -139
-20 0 -26 28 -10 45 22 23 -4 68 -76 138 -42 40 -80 84 -87 98 l-11 27 -53
-47 c-47 -41 -53 -49 -47 -74 8 -30 31 -35 61 -12 22 17 50 19 59 5 9 -15 -10
-35 -51 -55 -32 -15 -35 -19 -28 -48 12 -56 22 -68 52 -61 44 11 70 22 76 33
10 16 36 1 36 -20 0 -22 -26 -37 -91 -54 -61 -16 -87 -4 -116 53 -12 24 -27
49 -33 57 -6 8 -9 19 -6 24 13 20 -5 59 -30 64 -19 3 -24 0 -24 -15 0 -10 -11
-41 -25 -68 l-25 -50 33 0 c56 0 98 -56 83 -114 -11 -45 -71 -121 -96 -121
-19 0 -28 14 -59 90 -20 50 -39 92 -42 95 -3 3 -8 21 -12 41 -10 64 -47 138
-70 141 -12 2 -23 11 -25 21 -8 40 137 64 198 32 17 -9 30 -19 30 -23 0 -4 32
24 71 61 60 58 76 68 99 65 26 -4 29 -1 34 33 4 23 15 44 28 53 28 20 68 21
68 2z m-490 -422 c18 -114 20 -148 10 -182 -11 -44 -39 -67 -69 -57 -30 9 -88
103 -122 198 -32 91 -33 117 -1 117 15 0 27 -20 52 -82 43 -109 68 -158 81
-158 13 0 10 37 -16 200 -15 99 -15 105 1 117 31 23 42 -4 64 -153z m-220 -44
c26 -74 54 -153 64 -174 14 -35 15 -42 2 -54 -20 -20 -38 -8 -138 93 -43 43
-78 73 -78 68 0 -17 37 -116 69 -186 33 -70 33 -87 0 -87 -15 0 -28 18 -53 73
-47 101 -118 308 -112 324 11 29 46 9 126 -72 46 -46 85 -83 87 -81 2 1 -11
49 -28 105 -31 105 -32 135 -2 129 11 -2 31 -44 63 -138z m-396 -75 c3 -9 -13
-29 -44 -56 -51 -43 -57 -57 -40 -89 10 -19 11 -19 55 2 35 17 48 19 57 10 15
-15 -11 -45 -53 -62 -31 -13 -36 -31 -19 -75 14 -37 35 -41 90 -15 48 23 70
21 70 -5 0 -18 -42 -40 -103 -55 -30 -8 -47 -18 -50 -31 -6 -22 -5 -22 -119
24 -43 17 -80 28 -83 25 -3 -2 4 -31 15 -63 26 -75 25 -85 -4 -85 -19 0 -27 8
-37 38 -6 20 -31 83 -55 140 -24 57 -44 108 -44 115 -1 34 -17 39 -52 16 l-35
-22 33 -87 c17 -48 46 -118 62 -156 31 -69 30 -89 -4 -82 -24 4 -54 58 -99
182 -21 55 -39 103 -41 105 -7 8 -104 -42 -104 -54 0 -16 53 -170 80 -232 24
-55 22 -83 -6 -83 -9 0 -59 42 -112 93 -108 105 -110 101 -41 -56 56 -126 58
-137 25 -137 -23 0 -31 8 -53 58 -48 107 -124 325 -119 338 12 32 49 12 126
-68 43 -46 81 -80 84 -77 4 3 -5 42 -20 87 -14 45 -26 94 -27 109 -2 24 2 28
25 28 14 1 50 16 80 35 29 19 63 37 75 41 11 4 42 21 67 38 42 29 49 31 103
25 93 -11 131 -67 99 -147 -9 -22 -13 -44 -8 -48 7 -7 131 -49 143 -49 9 0
-30 83 -44 91 -5 4 -7 14 -4 23 10 26 -10 66 -33 66 -38 0 -21 37 46 99 67 61
106 76 118 46z m-847 -371 c4 -11 -10 -30 -45 -60 -48 -42 -50 -46 -40 -74 5
-17 12 -30 14 -30 3 0 23 9 46 21 27 14 44 17 51 10 16 -16 1 -39 -42 -60 -36
-19 -39 -23 -31 -48 21 -71 39 -79 98 -43 40 25 58 25 66 3 9 -23 -15 -40 -83
-59 -39 -12 -59 -13 -76 -6 -25 12 -85 114 -85 146 0 26 -10 41 -32 49 -33 12
-18 44 47 106 66 61 100 75 112 45z"/>
<path d="M3370 3065 c0 -13 45 -95 52 -95 5 0 13 12 19 27 15 41 -3 73 -41 73
-16 0 -30 -2 -30 -5z"/>
<path d="M3456 2848 c3 -13 13 -38 20 -57 14 -33 15 -33 29 -15 29 38 11 94
-31 94 -22 0 -24 -3 -18 -22z"/>
<path d="M2388 2608 c-16 -12 -16 -16 3 -57 21 -45 33 -45 44 0 4 17 0 33 -12
48 -15 19 -21 20 -35 9z"/>
</g>
</svg>
